<svg width="1280" height="244" viewBox="0 0 1280 244" fill="none" xmlns="http://www.w3.org/2000/svg">
<g clip-path="url(#clip0_13873_23624)">
<rect width="1280" height="244" rx="32" fill="#9DEBCD"/>
<path d="M673 225C673 169.772 717.772 125 773 125H1083C1138.23 125 1183 169.772 1183 225V281H673V225Z" fill="#C5F1D9"/>
<path d="M814.974 151.315C782.397 144.61 787.062 116.904 794.319 101.805C794.983 100.424 796.646 99.8662 798.045 100.49C836.065 117.426 825.35 141.306 814.974 151.315Z" fill="#4DCEB0"/>
<path d="M855.241 136.377C835.832 143.23 824.101 184.148 821.679 205.646C821.581 206.515 822.583 207.041 823.263 206.49C853.419 182.081 862.094 154.881 861.749 141.065C861.663 137.621 858.489 135.23 855.241 136.377Z" fill="#4DCEB0"/>
<path d="M814.974 215.011C791.392 195.326 785.895 174.458 786.001 164.628C786.014 163.478 787.086 162.676 788.154 163.103C800.892 168.198 811.245 199.323 814.974 215.011Z" fill="#212C30"/>
<path d="M808.498 131.263C815.563 146.401 825.807 189.651 810.264 241.551" stroke="black" stroke-width="2.2" stroke-linecap="round"/>
<path d="M1063.07 182.573C1087.39 177.629 1084.37 157.462 1079.03 146.022C1078.38 144.644 1076.75 144.08 1075.36 144.704C1047.16 157.391 1055.24 175.116 1063.07 182.573Z" fill="#4DCEB0"/>
<path d="M1065.42 235.653C1084.26 219.993 1088.9 203.408 1088.97 195.298C1088.98 194.149 1087.9 193.346 1086.85 193.815C1076.66 198.377 1068.41 223.112 1065.42 235.653Z" fill="#212C30"/>
<path d="M1070.13 162.521C1063.06 177.659 1059.19 217.96 1070.13 262.193" stroke="black" stroke-width="2.2" stroke-linecap="round"/>
<path d="M875.337 243.039C861.9 235.312 855.09 240.595 853.365 244.203C858.462 246.383 862.124 255.876 863.319 260.349C866.491 259.954 876.028 259.744 888.796 262.062C901.563 264.38 904.71 263.6 905.513 261.176C907.579 254.941 893.954 250.899 889.124 250.134C885.259 249.523 878.322 245.149 875.337 243.039Z" fill="url(#paint0_linear_13873_23624)"/>
<path d="M841.344 227.396C841.815 223.622 852.531 204.198 857.83 194.959L920.239 217.37C920.71 225.391 925.145 229.362 927.304 230.345C945.203 237.422 953.602 244.303 955.565 246.859C959.097 251.577 962.748 263.137 949.088 271.629C935.429 280.122 899.828 263.766 883.735 254.526C853.59 264.434 826.036 269.27 816.027 270.45C806.018 271.04 786 267.855 786 250.397C786 232.94 803.663 227.789 812.495 227.396H841.344Z" fill="#3590F1"/>
<path d="M969.695 105.903C973.463 102.6 980.685 100.988 983.825 100.595C982.059 112.98 987.358 113.57 989.713 121.237C991.597 127.371 992.068 130.083 991.479 131.263C995.719 131.735 995.208 135.785 995.012 137.161C995.483 139.048 993.442 145.024 992.068 146.007C983.825 148.956 982.059 145.418 980.882 144.828C979.94 144.356 973.424 146.99 969.695 149.546C966.398 151.433 965.181 153.871 965.574 155.444C954.269 156.387 951.051 147.973 950.854 143.648C950.854 142.665 951.208 140.581 952.621 140.11C954.034 139.638 955.172 137.554 955.565 136.571C953.681 133.268 952.817 129.69 952.621 128.314C950.737 120.765 956.938 113.766 960.275 111.211C959.333 108.38 959.882 106.492 960.275 105.903C963.101 106.375 967.732 106.099 969.695 105.903Z" fill="#FCA489"/>
<path d="M986.77 117.751C978.762 107.371 983.041 98.8782 986.181 95.9293C994.188 89.3239 1006.18 95.3394 1010.32 97.6457C1015.62 100.595 1026.81 110.621 1024.45 127.135C1023.18 136.066 1022.68 138.93 1025.04 142.469C1025.96 143.857 1036.81 152.548 1035.05 161.984C1033.28 171.421 1025.63 173.78 1028.57 182.626C1031.52 191.473 1042.7 197.96 1041.53 207.987C1040.58 216.007 1036.42 219.979 1034.46 220.962H983.237C982.648 219.192 980.764 212.351 977.938 199.14C974.406 182.626 970.873 167.292 967.929 162.574C965.574 158.799 964.985 155.89 964.985 154.907C965.927 148.773 975.191 142.915 979.705 140.752C982.256 143.505 988.536 147.476 993.246 141.342C997.956 135.208 992.854 132.102 989.714 131.316C991.127 126.126 988.34 120.11 986.77 117.751Z" fill="#212B2D"/>
<path d="M974.577 112.98C974.42 114.862 975.375 118.672 980.447 118.86" stroke="black" stroke-width="2" stroke-linecap="round"/>
<path d="M954.387 151.315C958.155 155.09 962.63 155.051 964.985 154.854C964.985 156.034 966.162 158.929 966.751 160.108C968.635 162.467 972.246 170.921 973.816 174.853C978.33 195.102 987.766 236.715 988.708 238.602C989.65 240.489 990.891 240.711 991.479 240.907C1001.88 242.873 1024.71 248.392 1034.13 249.808C1043.55 251.223 1046.04 251.577 1053.3 252.757C1080.38 253.346 1083.92 257.421 1086.86 258.011C1089.21 258.483 1090.2 259.387 1090.39 259.78C1093.34 260.424 1092.75 260.424 1093.92 261.013C1095.38 261.742 1095.95 264.08 1091.71 264.552C1087.47 265.024 1077.05 263.766 1073.32 263.373C1063.9 265.142 1057.42 263.426 1052.71 263.373C1040.35 264.016 1005.02 263.909 981.47 262.729C977.231 262.729 973.031 258.404 971.461 256.242C964.396 247.749 951.247 204.341 945.556 183.699C939.668 187.238 926.951 195.259 923.183 199.033C919.414 202.808 919.65 213.581 920.239 218.496L856.652 196.674C861.951 184.879 874.904 165.416 880.791 155.98C885.142 149.007 899.203 136.132 907.201 129.249C908.428 128.193 909.519 126.988 910.437 125.655C930.375 96.7134 946.015 77.594 969.695 54.5922C989.124 35.7195 1017.43 22.8763 1030.34 18.0262C1039.76 14.4876 1039.62 14.8695 1044.47 13.8979C1047.41 13.3081 1050.59 13.0722 1051.53 14.4877C1052.48 15.9031 1050.94 17.2399 1049.77 18.0263C1051.34 17.4365 1056.01 16.139 1057.42 18.0263C1058.83 19.9136 1055.46 21.1718 1053.89 22.1547C1054.87 21.9581 1057.07 22.0368 1058.01 23.924C1058.95 25.8113 1056.83 27.4627 1055.66 28.0525L1039.17 34.54L1046.23 35.7195C1049.53 36.6632 1049.96 38.865 1049.77 39.848C1049.77 41.6709 1046.43 41.4743 1044.47 41.6709C1040.35 41.6709 1034.34 41.7888 1029.16 42.2607C1023.98 42.7325 1017.72 45.9527 1016.8 46.3355C1009.89 49.1856 1002.19 53.2654 990.369 63.0131C986.349 66.3291 982.707 70.096 979.451 74.1652C960.326 98.066 948.997 118.69 945.556 126.491C944.967 127.671 943.907 130.62 944.378 132.979C944.845 135.317 949.976 138.48 952.552 140.067L952.621 140.11C951.443 142.076 950.619 147.541 954.387 151.315Z" fill="#FBA388"/>
<path d="M924.824 105.583C931.88 109.981 941.616 113.968 952.277 113.629C949.03 119.267 946.787 123.7 945.555 126.491C944.966 127.671 943.907 130.62 944.378 132.979C944.845 135.316 949.976 138.479 952.551 140.066L952.621 140.109C951.443 142.075 950.619 147.541 954.387 151.315C958.155 155.09 962.63 155.05 964.985 154.854C964.985 156.033 966.163 158.929 966.751 160.108C968.636 162.468 972.247 170.921 973.817 174.853C975.378 181.858 977.53 191.419 979.714 201.009C972.821 204.696 963.903 207.432 952.643 207.897C949.829 198.784 947.33 190.135 945.555 183.699C939.667 187.238 926.95 195.259 923.182 199.033C919.414 202.808 919.65 213.581 920.239 218.496L856.652 196.674C861.951 184.878 874.904 165.416 880.792 155.979C885.142 149.007 899.202 136.132 907.201 129.249C908.428 128.193 909.519 126.988 910.438 125.655C915.443 118.398 920.18 111.791 924.824 105.583Z" fill="#4DCDB0"/>
<path d="M844.46 216.612C859.497 212.874 864.599 219.827 865.27 223.77C859.771 224.466 853.649 232.587 851.275 236.561C848.333 235.31 839.22 232.486 826.307 231.206C813.395 229.926 810.139 229.951 810.139 227.396C810.139 223.268 819.56 219.139 829.259 219.646C833.166 219.85 841.011 217.821 844.46 216.612Z" fill="url(#paint1_linear_13873_23624)"/>
<path d="M850.621 42.1504C851.261 40.3976 853.739 40.3976 854.379 42.1504L856.217 47.1881C856.424 47.756 856.877 48.1998 857.449 48.3952L862.46 50.1074C864.265 50.7239 864.265 53.2761 862.46 53.8926L857.449 55.6048C856.877 55.8002 856.424 56.244 856.217 56.8119L854.379 61.8496C853.739 63.6024 851.261 63.6024 850.621 61.8496L848.783 56.8119C848.576 56.244 848.123 55.8002 847.551 55.6048L842.54 53.8926C840.735 53.2761 840.735 50.7239 842.54 50.1074L847.551 48.3952C848.123 48.1998 848.576 47.756 848.783 47.1881L850.621 42.1504Z" fill="#E5FFED"/>
<ellipse cx="886.479" cy="88.4929" rx="4.49849" ry="4.49925" fill="#70BEFF"/>
<circle cx="1192.5" cy="220.5" r="3.5" fill="#DFFBF5"/>
<path d="M744.67 212.301C736.328 204.843 729.384 203.277 724.824 203.748C721.746 204.067 720.351 207.351 721.547 210.205C727.566 224.56 746.38 232.555 755.909 234.891C755.736 225.302 748.344 215.836 744.67 212.301Z" fill="#7CD29F"/>
<path d="M752.526 246.419C744.872 243.092 739.414 243.654 736.149 245.507C733.759 246.863 733.899 250.579 735.851 253.017C746.037 265.742 764.579 269.96 773.33 267.942C769.69 258.354 758.705 248.771 752.526 246.419Z" fill="#7CD29F"/>
<path d="M738.289 217.208C741.758 219.361 751.197 227.783 761.192 244.246C765.306 251.369 774.724 268.804 779.488 281.555" stroke="black" stroke-width="2.28" stroke-linecap="round"/>
<path d="M747.49 252.312C754.054 252.686 766.773 259.678 773.224 266.845" stroke="black" stroke-width="2.28" stroke-linecap="round"/>
</g>
<defs>
<linearGradient id="paint0_linear_13873_23624" x1="878.816" y1="238.195" x2="880.212" y2="264.539" gradientUnits="userSpaceOnUse">
<stop stop-color="#FFBEA6"/>
<stop offset="1" stop-color="#F8AC8E"/>
</linearGradient>
<linearGradient id="paint1_linear_13873_23624" x1="842.441" y1="210.998" x2="833.861" y2="235.94" gradientUnits="userSpaceOnUse">
<stop stop-color="#FFBEA6"/>
<stop offset="1" stop-color="#F8AC8E"/>
</linearGradient>
<clipPath id="clip0_13873_23624">
<rect width="1280" height="244" rx="32" fill="white"/>
</clipPath>
</defs>
</svg>
