<svg width="375" height="192" viewBox="0 0 375 192" fill="none" xmlns="http://www.w3.org/2000/svg">
<g clip-path="url(#clip0_13873_23770)">
<rect width="375" height="192" fill="#9DEBCD"/>
<path d="M193.736 161.585C193.736 136.248 217.462 115.709 246.73 115.709H411.013C440.281 115.709 464.007 136.248 464.007 161.585V202.874H193.736V161.585Z" fill="#C5F1D9"/>
<path d="M230.774 128.822C209.97 124.553 212.294 107.284 216.82 97.2458C217.449 95.8516 219.09 95.2799 220.478 95.9203C244.469 106.983 237.513 122.342 230.774 128.822Z" fill="#4DCEB0"/>
<path d="M255.411 119.842C243.966 125.962 236.961 150.054 235.27 163.614C235.162 164.481 236.151 165.002 236.826 164.447C254.797 149.698 260.875 133.491 261.452 124.098C261.663 120.662 258.447 118.219 255.411 119.842Z" fill="#4DCEB0"/>
<path d="M230.774 170.52C215.85 158.102 211.956 144.964 211.755 138.267C211.72 137.118 212.797 136.317 213.822 136.839C221.883 140.945 228.39 160.522 230.774 170.52Z" fill="#212C30"/>
<path d="M226.521 115.694C231.161 125.604 237.889 153.918 227.681 187.895" stroke="black" stroke-width="2.2" stroke-linecap="round"/>
<path d="M270.416 188.869C261.592 183.81 257.119 187.269 255.986 189.631C259.333 191.058 261.739 197.273 262.523 200.201C264.606 199.943 270.869 199.805 279.254 201.322C287.639 202.84 289.706 202.33 290.233 200.742C291.59 196.661 282.642 194.015 279.47 193.514C276.932 193.113 272.376 190.25 270.416 188.869Z" fill="url(#paint0_linear_13873_23770)"/>
<path d="M248.092 178.629C248.401 176.158 255.438 163.442 258.918 157.393L299.903 172.065C300.213 177.316 303.126 179.916 304.543 180.559C316.298 185.192 321.814 189.697 323.103 191.37C325.423 194.459 327.82 202.026 318.849 207.586C309.879 213.146 286.499 202.438 275.931 196.389C256.134 202.876 238.039 206.042 231.466 206.814C224.893 207.2 211.747 205.115 211.747 193.686C211.747 182.258 223.346 178.886 229.146 178.629H248.092Z" fill="#3590F1"/>
<path d="M332.382 99.0923C334.857 96.9302 339.6 95.8748 341.662 95.6174C340.502 103.725 343.982 104.112 345.528 109.131C346.766 113.146 347.075 114.922 346.688 115.695C349.472 116.003 349.137 118.655 349.008 119.556C349.318 120.791 347.977 124.703 347.075 125.347C341.662 127.277 340.502 124.961 339.729 124.575C339.11 124.266 334.831 125.99 332.382 127.664C330.217 128.899 329.418 130.495 329.676 131.525C322.252 132.142 320.138 126.634 320.009 123.803C320.009 123.159 320.241 121.795 321.169 121.486C322.097 121.177 322.845 119.813 323.102 119.169C321.865 117.007 321.298 114.665 321.169 113.764C319.932 108.822 324.005 104.24 326.196 102.567C325.577 100.714 325.938 99.4784 326.196 99.0923C328.052 99.4012 331.093 99.221 332.382 99.0923Z" fill="#FCA489"/>
<path d="M343.595 106.849C338.337 100.054 341.146 94.4938 343.209 92.5633C348.467 88.239 356.34 92.1771 359.061 93.6869C362.541 95.6174 369.888 102.181 368.341 112.992C367.505 118.839 367.181 120.714 368.728 123.03C369.334 123.939 376.461 129.629 375.301 135.806C374.141 141.984 369.114 143.528 371.048 149.32C372.981 155.111 380.327 159.358 379.554 165.922C378.935 171.173 376.203 173.773 374.914 174.416H341.275C340.889 173.258 339.651 168.779 337.795 160.13C335.476 149.32 333.156 139.281 331.222 136.192C329.676 133.721 329.289 131.817 329.289 131.173C329.908 127.158 335.991 123.322 338.955 121.907C340.631 123.709 344.755 126.308 347.848 122.293C350.942 118.277 347.591 116.244 345.528 115.729C346.456 112.332 344.626 108.393 343.595 106.849Z" fill="#212B2D"/>
<path d="M335.588 103.725C335.485 104.957 336.112 107.452 339.443 107.575" stroke="black" stroke-width="2" stroke-linecap="round"/>
<path d="M322.329 128.822C324.804 131.293 327.743 131.267 329.289 131.138C329.289 131.911 330.062 133.806 330.449 134.578C331.686 136.123 334.058 141.657 335.089 144.231C338.053 157.487 344.25 184.729 344.868 185.964C345.487 187.2 346.302 187.345 346.689 187.474C353.519 188.761 368.511 192.374 374.698 193.3C380.884 194.227 382.518 194.459 387.287 195.231C405.073 195.617 407.393 198.284 409.326 198.67C410.873 198.979 411.517 199.571 411.646 199.829C413.579 200.25 413.193 200.25 413.966 200.636C414.921 201.113 415.298 202.644 412.514 202.953C409.73 203.262 402.882 202.438 400.433 202.18C394.247 203.339 389.994 202.216 386.9 202.18C378.781 202.602 355.582 202.531 340.115 201.759C337.332 201.759 334.573 198.928 333.542 197.512C328.902 191.952 320.267 163.536 316.53 150.022C312.663 152.339 304.311 157.59 301.837 160.061C299.362 162.532 299.517 169.584 299.904 172.802L258.145 158.516C261.625 150.794 270.131 138.053 273.998 131.876C276.743 127.49 285.373 119.538 290.705 114.925C291.929 113.865 293.022 112.664 293.944 111.333C306.812 92.771 317.021 80.3764 332.382 65.5017C345.142 53.1466 363.728 44.7387 372.208 41.5636C378.394 39.2471 378.302 39.4971 381.487 38.861C383.421 38.4749 385.508 38.3205 386.127 39.2471C386.746 40.1737 385.74 41.0489 384.967 41.5637C385.998 41.1776 389.066 40.3282 389.994 41.5637C390.922 42.7992 388.705 43.6229 387.674 44.2664C388.318 44.1377 389.762 44.1892 390.38 45.4247C390.999 46.6602 389.607 47.7413 388.834 48.1274L378.007 52.3744L382.647 53.1466C384.812 53.7644 385.096 55.2058 384.967 55.8493C384.967 57.0427 382.776 56.914 381.487 57.0427C378.781 57.0427 374.837 57.1199 371.434 57.4288C368.032 57.7377 363.924 59.8458 363.315 60.0964C359.199 61.7887 354.657 64.1432 348.057 69.3278C343.958 72.5474 340.328 76.3249 337.114 80.4277C325.566 95.1679 318.687 107.695 316.53 112.571C316.143 113.343 315.447 115.273 315.756 116.818C316.063 118.348 319.433 120.419 321.124 121.458L321.169 121.486C320.396 122.773 319.855 126.351 322.329 128.822Z" fill="#FBA388"/>
<path d="M302.917 98.8812C307.55 101.76 313.942 104.373 320.943 104.151C318.811 107.841 317.338 110.743 316.53 112.571C316.143 113.343 315.447 115.273 315.756 116.818C316.063 118.348 319.432 120.419 321.124 121.458L321.169 121.486C320.396 122.773 319.855 126.351 322.33 128.822C324.804 131.293 327.743 131.267 329.29 131.138C329.29 131.91 330.062 133.806 330.449 134.578C331.686 136.123 334.058 141.657 335.089 144.231C336.115 148.817 337.528 155.076 338.962 161.354C334.436 163.768 328.579 165.559 321.184 165.864C319.336 159.897 317.695 154.235 316.53 150.022C312.663 152.338 304.311 157.59 301.836 160.061C299.362 162.532 299.517 169.585 299.904 172.802L258.145 158.516C261.625 150.794 270.131 138.053 273.998 131.875C276.742 127.49 285.373 119.539 290.705 114.925C291.929 113.866 293.021 112.664 293.945 111.333C297.057 106.851 300.015 102.748 302.917 98.8812Z" fill="#4DCDB0"/>
<path d="M250.138 171.568C260.013 169.122 263.363 173.673 263.804 176.255C260.193 176.71 256.173 182.027 254.614 184.628C252.682 183.809 246.697 181.961 238.217 181.123C229.737 180.284 227.599 180.301 227.599 178.628C227.599 175.926 233.786 173.223 240.155 173.555C242.721 173.688 247.873 172.36 250.138 171.568Z" fill="url(#paint1_linear_13873_23770)"/>
<path d="M253.54 59.1173C254.18 57.367 256.656 57.367 257.296 59.1173L257.745 60.3449C257.953 60.9126 258.406 61.3559 258.979 61.5508L260.038 61.9116C261.845 62.527 261.845 65.0826 260.038 65.698L258.979 66.0588C258.406 66.2537 257.953 66.697 257.745 67.2647L257.296 68.4923C256.656 70.2425 254.18 70.2425 253.54 68.4923L253.09 67.2647C252.883 66.697 252.429 66.2537 251.857 66.0588L250.798 65.698C248.991 65.0826 248.991 62.527 250.798 61.9116L251.857 61.5508C252.429 61.3559 252.883 60.9126 253.09 60.3449L253.54 59.1173Z" fill="#E5FFED"/>
<ellipse cx="277.733" cy="87.695" rx="2.95423" ry="2.94545" fill="#70BEFF"/>
<path d="M184.599 168.75C179.12 163.864 174.561 162.836 171.568 163.142C169.548 163.349 168.633 165.498 169.42 167.367C173.377 176.766 185.731 182.008 191.987 183.541C191.869 177.265 187.013 171.065 184.599 168.75Z" fill="#7CD29F"/>
<path d="M189.758 191.084C184.731 188.904 181.148 189.269 179.005 190.48C177.436 191.366 177.53 193.798 178.813 195.394C185.507 203.725 197.684 206.494 203.428 205.178C201.034 198.902 193.817 192.626 189.758 191.084Z" fill="#7CD29F"/>
<path d="M179.777 171.56C179.994 171.21 180.456 171.103 180.807 171.32C183.142 172.767 189.1 178.087 195.473 188.273L196.091 189.274L196.095 189.281L196.099 189.288C198.806 193.96 205.019 205.418 208.173 213.826C208.317 214.213 208.121 214.642 207.734 214.786C207.347 214.93 206.917 214.733 206.772 214.347C203.666 206.069 197.515 194.713 194.813 190.048L194.202 189.058C187.906 178.996 182.096 173.875 180.019 172.588C179.668 172.371 179.559 171.91 179.777 171.56Z" fill="black"/>
<path d="M185.709 194.89C185.732 194.479 186.085 194.164 186.498 194.188C188.827 194.322 192.115 195.6 195.298 197.378C198.501 199.168 201.722 201.535 203.912 203.961C204.188 204.268 204.164 204.74 203.857 205.016C203.55 205.291 203.077 205.266 202.8 204.96C200.752 202.69 197.676 200.417 194.567 198.68C191.437 196.931 188.393 195.792 186.414 195.678C186.001 195.654 185.686 195.301 185.709 194.89Z" fill="black"/>
</g>
<defs>
<linearGradient id="paint0_linear_13873_23770" x1="272.7" y1="185.698" x2="273.611" y2="202.945" gradientUnits="userSpaceOnUse">
<stop stop-color="#FFBEA6"/>
<stop offset="1" stop-color="#F8AC8E"/>
</linearGradient>
<linearGradient id="paint1_linear_13873_23770" x1="248.813" y1="167.893" x2="243.209" y2="184.233" gradientUnits="userSpaceOnUse">
<stop stop-color="#FFBEA6"/>
<stop offset="1" stop-color="#F8AC8E"/>
</linearGradient>
<clipPath id="clip0_13873_23770">
<rect width="375" height="192" fill="white"/>
</clipPath>
</defs>
</svg>
