<svg width="696" height="244" viewBox="0 0 696 244" fill="none" xmlns="http://www.w3.org/2000/svg">
<g clip-path="url(#clip0_13873_23696)">
<rect width="696" height="244" rx="24" fill="#9DEBCD"/>
<path d="M409.069 196.574C409.069 162.833 440.614 135.48 479.527 135.48H697.948C736.861 135.48 768.407 162.833 768.407 196.574V251.559H409.069V196.574Z" fill="#C5F1D9"/>
<path d="M458.313 152.943C430.091 147.143 433.88 123.321 440.13 110.092C440.783 108.708 442.441 108.142 443.837 108.77C476.671 123.526 467.345 144.244 458.313 152.943Z" fill="#4DCEB0"/>
<path d="M492.787 140.179C476.334 146.823 466.356 181.465 464.2 200.025C464.1 200.893 465.098 201.413 465.776 200.862C491.392 180.061 499.14 156.978 499.162 144.755C499.169 141.311 495.98 138.889 492.787 140.179Z" fill="#4DCEB0"/>
<path d="M458.313 208.474C437.937 191.491 433.025 173.498 433.015 164.82C433.013 163.67 434.089 162.868 435.145 163.323C446.152 168.068 455.081 194.899 458.313 208.474Z" fill="#212C30"/>
<path d="M452.658 135.461C458.827 148.658 467.772 186.364 454.2 231.611" stroke="black" stroke-width="2.2" stroke-linecap="round"/>
<path d="M674.931 180.194C695.95 175.928 693.584 158.657 689.008 148.634C688.377 147.252 686.749 146.684 685.366 147.314C661.098 158.365 668.125 173.719 674.931 180.194Z" fill="#4DCEB0"/>
<path d="M676.982 226.47C693.233 212.989 697.383 198.722 697.541 191.558C697.566 190.41 696.49 189.606 695.456 190.107C686.674 194.36 679.574 215.635 676.982 226.47Z" fill="#212C30"/>
<path d="M681.095 162.712C674.926 175.909 671.544 211.044 681.095 249.607" stroke="black" stroke-width="2.2" stroke-linecap="round"/>
<path d="M511.018 232.908C499.286 226.172 493.34 230.778 491.833 233.923C496.283 235.824 499.482 244.1 500.524 248C503.294 247.656 511.621 247.472 522.769 249.493C533.917 251.513 536.665 250.834 537.366 248.72C539.17 243.285 527.273 239.761 523.055 239.094C519.681 238.561 513.625 234.748 511.018 232.908Z" fill="url(#paint0_linear_13873_23696)"/>
<path d="M481.337 219.271C481.749 215.98 491.105 199.047 495.731 190.992L550.223 210.53C550.634 217.523 554.507 220.985 556.392 221.842C572.02 228.012 579.354 234.011 581.068 236.239C584.152 240.352 587.339 250.43 575.413 257.834C563.486 265.238 532.402 250.978 518.351 242.923C492.03 251.561 467.972 255.777 459.232 256.806C450.493 257.32 433.015 254.543 433.015 239.324C433.015 224.104 448.437 219.614 456.148 219.271H481.337Z" fill="#3590F1"/>
<path d="M593.405 113.352C596.695 110.473 603.001 109.068 605.743 108.725C604.201 119.522 608.828 120.036 610.884 126.721C612.529 132.068 612.94 134.433 612.426 135.462C616.127 135.873 615.682 139.404 615.511 140.603C615.922 142.249 614.14 147.459 612.94 148.316C605.743 150.887 604.201 147.802 603.173 147.287C602.35 146.876 596.661 149.173 593.405 151.401C590.527 153.046 589.464 155.171 589.807 156.543C579.937 157.365 577.126 150.03 576.955 146.259C576.955 145.402 577.264 143.585 578.497 143.174C579.731 142.763 580.725 140.946 581.068 140.089C579.423 137.21 578.669 134.09 578.497 132.891C576.852 126.309 582.267 120.208 585.18 117.98C584.358 115.512 584.837 113.866 585.18 113.352C587.648 113.764 591.692 113.524 593.405 113.352Z" fill="#FCA489"/>
<path d="M608.313 123.682C601.322 114.632 605.057 107.228 607.799 104.657C614.79 98.8987 625.258 104.143 628.876 106.154C633.503 108.725 643.27 117.466 641.214 131.862C640.102 139.649 639.672 142.146 641.728 145.231C642.534 146.441 652.009 154.018 650.467 162.244C648.925 170.471 642.242 172.528 644.812 180.24C647.383 187.953 657.15 193.609 656.122 202.35C655.299 209.342 651.667 212.804 649.953 213.661H605.229C604.715 212.119 603.07 206.154 600.602 194.637C597.518 180.24 594.433 166.872 591.863 162.759C589.807 159.468 589.292 156.931 589.292 156.074C590.115 150.727 598.203 145.62 602.144 143.734C604.372 146.134 609.855 149.596 613.968 144.248C618.081 138.901 613.625 136.193 610.884 135.508C612.117 130.983 609.684 125.738 608.313 123.682Z" fill="#212B2D"/>
<path d="M597.667 119.522C597.53 121.163 598.364 124.485 602.792 124.649" stroke="black" stroke-width="2" stroke-linecap="round"/>
<path d="M580.039 152.943C583.329 156.234 587.236 156.2 589.292 156.028C589.292 157.057 590.321 159.581 590.835 160.609C592.48 162.666 595.633 170.035 597.004 173.463C600.945 191.116 609.183 227.395 610.006 229.04C610.828 230.686 611.912 230.879 612.426 231.05C621.508 232.764 641.44 237.576 649.665 238.81C657.89 240.044 660.063 240.352 666.403 241.38C690.051 241.895 693.135 245.447 695.706 245.961C697.762 246.373 698.619 247.161 698.79 247.504C701.36 248.065 700.846 248.065 701.874 248.579C703.144 249.214 703.645 251.252 699.943 251.664C696.242 252.075 687.138 250.978 683.882 250.635C675.657 252.178 670.002 250.682 665.889 250.635C655.094 251.196 624.249 251.103 603.687 250.075C599.985 250.075 596.318 246.304 594.947 244.419C588.778 237.015 577.297 199.172 572.328 181.176C567.187 184.261 556.083 191.254 552.793 194.544C549.503 197.835 549.709 207.227 550.223 211.512L494.703 192.488C499.33 182.204 510.639 165.237 515.78 157.01C519.536 150.999 531.581 139.957 538.602 133.91C539.829 132.853 540.921 131.649 541.841 130.317C559.166 105.228 572.799 88.6047 593.405 68.6193C610.369 52.166 635.081 40.9691 646.355 36.7408C654.58 33.6559 654.458 33.9888 658.692 33.1417C661.263 32.6275 664.039 32.4219 664.861 33.6559C665.684 34.8899 664.347 36.0554 663.319 36.7409C664.69 36.2268 668.768 35.0956 670.002 36.7409C671.236 38.3863 668.288 39.4832 666.917 40.3401C667.774 40.1687 669.693 40.2373 670.516 41.8826C671.338 43.528 669.488 44.9676 668.46 45.4818L654.066 51.1377L660.234 52.166C663.113 52.9887 663.49 54.9083 663.319 55.7652C663.319 57.3544 660.406 57.183 658.692 57.3544C655.094 57.3544 649.85 57.4573 645.326 57.8686C640.803 58.2799 635.341 61.0873 634.531 61.4211C628.649 63.8436 622.112 67.285 612.226 75.331C608.183 78.6208 604.547 82.3847 601.301 86.4623C584.979 106.967 575.295 124.585 572.328 131.301C571.814 132.33 570.889 134.901 571.3 136.957C571.707 138.995 576.188 141.753 578.436 143.137L578.497 143.174C577.469 144.888 576.749 149.653 580.039 152.943Z" fill="#FBA388"/>
<path d="M554.229 113.071C560.389 116.905 568.888 120.383 578.196 120.088C575.361 125.003 573.403 128.868 572.328 131.302C571.814 132.33 570.889 134.901 571.3 136.958C571.708 138.996 576.188 141.753 578.437 143.136L578.497 143.174C577.469 144.887 576.749 149.652 580.039 152.943C583.329 156.234 587.237 156.199 589.293 156.028C589.293 157.056 590.321 159.581 590.835 160.609C592.48 162.666 595.633 170.036 597.004 173.464C598.367 179.571 600.246 187.906 602.153 196.266C596.135 199.481 588.348 201.866 578.517 202.271C576.06 194.326 573.877 186.786 572.328 181.176C567.187 184.261 556.083 191.254 552.793 194.545C549.503 197.836 549.709 207.227 550.223 211.511L494.703 192.488C499.33 182.205 510.64 165.236 515.78 157.01C519.536 150.999 531.581 139.958 538.603 133.91C539.829 132.853 540.921 131.649 541.842 130.317C546.148 124.089 550.228 118.411 554.229 113.071Z" fill="#4DCDB0"/>
<path d="M484.058 209.869C497.187 206.611 501.642 212.672 502.228 216.11C497.427 216.716 492.082 223.797 490.009 227.261C487.44 226.17 479.483 223.709 468.208 222.593C456.934 221.476 454.092 221.498 454.092 219.271C454.092 215.672 462.317 212.073 470.785 212.515C474.197 212.693 481.046 210.923 484.058 209.869Z" fill="url(#paint1_linear_13873_23696)"/>
<path d="M489.2 58.424C489.84 56.6724 492.317 56.6724 492.957 58.424L494.282 62.0494C494.489 62.6173 494.942 63.0608 495.514 63.256L499.063 64.4666C500.869 65.0825 500.869 67.6364 499.063 68.2523L495.514 69.4629C494.942 69.6581 494.489 70.1016 494.282 70.6695L492.957 74.2949C492.317 76.0465 489.84 76.0465 489.2 74.2949L487.875 70.6695C487.668 70.1016 487.215 69.6581 486.643 69.4629L483.094 68.2523C481.288 67.6364 481.288 65.0825 483.094 64.4666L486.643 63.256C487.215 63.0608 487.668 62.6173 487.875 62.0494L489.2 58.424Z" fill="#E5FFED"/>
<ellipse cx="520.747" cy="98.1743" rx="3.9278" ry="3.92248" fill="#70BEFF"/>
<path d="M396.925 206.113C389.64 199.609 383.578 198.242 379.598 198.651C376.911 198.928 375.694 201.791 376.74 204.279C381.998 216.795 398.424 223.77 406.743 225.809C406.589 217.45 400.133 209.196 396.925 206.113Z" fill="#7CD29F"/>
<path d="M403.784 235.857C397.101 232.955 392.337 233.443 389.486 235.057C387.4 236.238 387.524 239.477 389.228 241.603C398.126 252.697 414.315 256.379 421.954 254.623C418.773 246.265 409.18 237.909 403.784 235.857Z" fill="#7CD29F"/>
<path d="M390.51 209.861C390.8 209.395 391.414 209.252 391.881 209.541C394.986 211.467 402.909 218.549 411.381 232.113L412.203 233.446L412.209 233.456L412.215 233.465C415.813 239.686 424.071 254.945 428.263 266.142C428.455 266.656 428.194 267.228 427.679 267.42C427.165 267.612 426.592 267.35 426.399 266.836C422.272 255.812 414.095 240.69 410.503 234.478L409.691 233.16C401.32 219.76 393.595 212.944 390.832 211.23C390.365 210.941 390.221 210.328 390.51 209.861Z" fill="black"/>
<path d="M398.397 240.931C398.428 240.383 398.898 239.965 399.447 239.996C402.544 240.174 406.916 241.873 411.147 244.24C415.407 246.622 419.688 249.772 422.599 253.002C422.967 253.41 422.934 254.039 422.526 254.406C422.118 254.773 421.488 254.74 421.12 254.332C418.397 251.311 414.309 248.286 410.175 245.974C406.013 243.646 401.967 242.131 399.334 241.98C398.785 241.949 398.366 241.479 398.397 240.931Z" fill="black"/>
</g>
<defs>
<linearGradient id="paint0_linear_13873_23696" x1="514.055" y1="228.685" x2="515.271" y2="251.653" gradientUnits="userSpaceOnUse">
<stop stop-color="#FFBEA6"/>
<stop offset="1" stop-color="#F8AC8E"/>
</linearGradient>
<linearGradient id="paint1_linear_13873_23696" x1="482.296" y1="204.975" x2="474.824" y2="226.727" gradientUnits="userSpaceOnUse">
<stop stop-color="#FFBEA6"/>
<stop offset="1" stop-color="#F8AC8E"/>
</linearGradient>
<clipPath id="clip0_13873_23696">
<rect width="696" height="244" rx="24" fill="white"/>
</clipPath>
</defs>
</svg>
