<svg width="121" height="72" viewBox="0 0 121 72" fill="none" xmlns="http://www.w3.org/2000/svg">
<path d="M11.9904 67.4253C12.3074 67.4436 12.6315 67.4311 12.9592 67.3857L13.0561 68.0849C12.6824 68.1367 12.3123 68.15 11.9494 68.129L11.9904 67.4253ZM14.3883 67.1876L14.4852 67.8868L13.0561 68.0849L12.9592 67.3857L14.3883 67.1876ZM20.1055 66.3951L20.2024 67.0943L17.3442 67.4905L17.2472 66.7913L20.1055 66.3951ZM25.8227 65.6027L25.9196 66.3019L23.0606 66.6982L22.9637 65.999L25.8227 65.6027ZM31.5391 64.8103L31.6361 65.5095L28.7778 65.9057L28.6809 65.2065L31.5391 64.8103ZM37.2563 64.0179L37.3532 64.7171L34.495 65.1132L34.3981 64.414L37.2563 64.0179ZM42.9735 63.2254L43.0704 63.9246L40.2115 64.3209L40.1145 63.6217L42.9735 63.2254ZM48.69 62.433L48.7869 63.1322L45.9286 63.5284L45.8317 62.8292L48.69 62.433ZM54.4071 61.6406L54.504 62.3398L51.6458 62.736L51.5489 62.0368L54.4071 61.6406ZM60.1243 60.8481L60.2212 61.5473L57.3623 61.9436L57.2654 61.2444L60.1243 60.8481ZM65.8415 60.0557L65.9384 60.7549L63.0795 61.1511L62.9825 60.4519L65.8415 60.0557ZM71.5579 59.2633L71.6549 59.9625L68.7966 60.3587L68.6997 59.6595L71.5579 59.2633ZM77.2751 58.4708L77.372 59.17L74.5138 59.5662L74.4169 58.867L77.2751 58.4708ZM82.9923 57.6784L83.0892 58.3776L80.2303 58.7739L80.1334 58.0747L82.9923 57.6784ZM88.7088 56.886L88.8057 57.5852L85.9474 57.9814L85.8505 57.2822L88.7088 56.886ZM94.4259 56.0936L94.5228 56.7928L91.6646 57.1889L91.5677 56.4897L94.4259 56.0936ZM100.143 55.3011L100.24 56.0003L97.3811 56.3966L97.2842 55.6974L100.143 55.3011ZM105.86 54.5087L105.957 55.2079L103.098 55.6041L103.001 54.9049L105.86 54.5087ZM110.148 53.9144L110.245 54.6136L108.815 54.8117L108.719 54.1125L110.148 53.9144ZM111.321 54.3551C110.978 54.4738 110.618 54.5618 110.245 54.6136L110.148 53.9144C110.475 53.8689 110.791 53.7928 111.091 53.689L111.321 54.3551ZM8.58743 65.7744C9.01893 66.2588 9.5425 66.6549 10.126 66.9384L9.97095 67.2557L9.97173 67.2563L9.81725 67.5727C9.15083 67.2489 8.55302 66.7968 8.06021 66.2435L8.58743 65.7744ZM114.233 51.3291L114.551 51.4828C114.227 52.1493 113.775 52.747 113.221 53.2399L112.987 52.9772L112.752 52.7133C113.237 52.2818 113.633 51.7583 113.916 51.1748L114.233 51.3291ZM6.6872 63.2666L6.50246 61.9338L7.20165 61.8369L7.3864 63.1697C7.43183 63.4975 7.50795 63.8126 7.61176 64.1128L6.94496 64.343C6.82626 63.9998 6.73896 63.64 6.6872 63.2666ZM115.063 48.2447C115.115 48.6181 115.128 48.988 115.107 49.3506L114.403 49.3104C114.422 48.9933 114.409 48.6693 114.364 48.3416L114.179 47.0087L114.878 46.9118L115.063 48.2447ZM6.46267 56.5055L6.83216 59.1712L6.13296 59.2681L5.76347 56.6024L6.46267 56.5055ZM114.139 41.5804L114.509 44.2461L113.809 44.343L113.44 41.6773L114.139 41.5804ZM5.72368 51.1741L6.09318 53.8398L5.39398 53.9367L5.02449 51.271L5.72368 51.1741ZM113.4 36.249L113.77 38.9147L113.07 39.0117L112.701 36.346L113.4 36.249ZM4.9847 45.8427L5.35419 48.5084L4.655 48.6053L4.2855 45.9396L4.9847 45.8427ZM112.661 30.9177L113.031 33.5834L112.331 33.6803L111.962 31.0146L112.661 30.9177ZM4.24572 40.5113L4.61521 43.177L3.91601 43.274L3.54652 40.6083L4.24572 40.5113ZM111.922 25.5863L112.292 28.252L111.592 28.3489L111.223 25.6832L111.922 25.5863ZM3.50673 35.18L3.87622 37.8457L3.17703 37.9426L2.80753 35.2769L3.50673 35.18ZM111.183 20.2549L111.553 22.9206L110.853 23.0175L110.484 20.3518L111.183 20.2549ZM2.76775 29.8486L3.13724 32.5143L2.43804 32.6112L2.06855 29.9455L2.76775 29.8486ZM110.444 14.9235L110.814 17.5892L110.114 17.6861L109.745 15.0204L110.444 14.9235ZM2.02876 24.5172L2.39826 27.1829L1.69906 27.2798L1.32957 24.6141L2.02876 24.5172ZM109.705 9.59214L110.075 12.2578L109.375 12.3548L109.006 9.68906L109.705 9.59214ZM0.775328 20.6156C0.723539 20.242 0.709587 19.8718 0.73051 19.509L1.43489 19.5499C1.41662 19.8669 1.4291 20.1909 1.47453 20.5187L1.65927 21.8515L0.960074 21.9484L0.775328 20.6156ZM109.336 6.92645L108.636 7.02337L108.452 5.69053C108.406 5.36279 108.33 5.04759 108.226 4.74746L108.892 4.51666C109.011 4.86013 109.099 5.21994 109.151 5.59361L109.336 6.92645ZM2.75208 15.7728L3.08578 16.1469C2.60138 16.5784 2.20529 17.102 1.9218 17.6855L1.28678 17.3768C1.61056 16.7104 2.06283 16.1126 2.61604 15.6198L2.75208 15.7728ZM106.02 1.28691C106.687 1.61064 107.284 2.06294 107.777 2.61616L107.251 3.08581C106.819 2.60141 106.296 2.20531 105.712 1.92183L105.931 1.47108L106.02 1.28691ZM7.0227 14.0486L7.11962 14.7478L5.6905 14.9459C5.36276 14.9913 5.04757 15.0674 4.74743 15.1712L4.51653 14.5045C4.77113 14.4164 5.03487 14.3459 5.30647 14.2941L5.59358 14.2467L7.0227 14.0486ZM103.071 0.742927C103.346 0.718915 103.619 0.715168 103.888 0.730633L103.848 1.43491C103.531 1.41665 103.207 1.42913 102.879 1.47455L101.45 1.67265L101.353 0.973448L102.782 0.775357L103.071 0.742927ZM12.7399 13.2561L12.8368 13.9553L9.97854 14.3515L9.88163 13.6523L12.7399 13.2561ZM18.457 12.4637L18.554 13.1629L15.695 13.5591L15.5981 12.8599L18.457 12.4637ZM24.1735 11.6713L24.2704 12.3705L21.4122 12.7667L21.3153 12.0675L24.1735 11.6713ZM29.8907 10.8788L29.9876 11.578L27.1294 11.9742L27.0324 11.275L29.8907 10.8788ZM35.6079 10.0864L35.7048 10.7856L32.8458 11.1819L32.7489 10.4827L35.6079 10.0864ZM41.3243 9.29402L41.4213 9.99322L38.563 10.3894L38.4661 9.69021L41.3243 9.29402ZM47.0415 8.50157L47.1384 9.20076L44.2802 9.59694L44.1833 8.89775L47.0415 8.50157ZM52.7587 7.70911L52.8556 8.4083L49.9967 8.80458L49.8998 8.10538L52.7587 7.70911ZM58.4758 6.91665L58.5728 7.61585L55.7138 8.01212L55.6169 7.31293L58.4758 6.91665ZM64.1923 6.12429L64.2892 6.82348L61.431 7.21966L61.3341 6.52047L64.1923 6.12429ZM69.9095 5.33183L70.0064 6.03102L67.1482 6.42721L67.0513 5.72801L69.9095 5.33183ZM75.6267 4.53937L75.7236 5.23857L72.8647 5.63484L72.7677 4.93564L75.6267 4.53937ZM81.3432 3.74701L81.4401 4.4462L78.5818 4.84238L78.4849 4.14319L81.3432 3.74701ZM87.0603 2.95455L87.1572 3.65374L84.299 4.04993L84.2021 3.35073L87.0603 2.95455ZM92.7775 2.16209L92.8744 2.86129L90.0155 3.25756L89.9186 2.55836L92.7775 2.16209ZM98.494 1.36972L98.5909 2.06892L95.7327 2.4651L95.6357 1.76591L98.494 1.36972Z" fill="#BBBBBB"/>
<path d="M14.8242 23.2942C14.8242 20.1754 17.3525 17.6471 20.4713 17.6471H115.06C118.178 17.6471 120.707 20.1754 120.707 23.2942V66.353C120.707 69.4718 118.178 72 115.06 72H20.4713C17.3525 72 14.8242 69.4718 14.8242 66.353V23.2942Z" fill="#EDEFF1"/>
<path d="M115.06 71.2942V72H20.4713V71.2942H115.06ZM120.001 66.353V23.2942C120.001 20.5652 117.788 18.353 115.06 18.353H20.4713C17.7423 18.353 15.5301 20.5652 15.5301 23.2942V66.353C15.5301 69.0819 17.7423 71.2942 20.4713 71.2942V72C17.3525 72 14.8242 69.4718 14.8242 66.353V23.2942C14.8242 20.1754 17.3525 17.6471 20.4713 17.6471H115.06L115.35 17.6547C118.334 17.8061 120.707 20.2729 120.707 23.2942V66.353C120.707 69.3742 118.334 71.841 115.35 71.9925L115.06 72V71.2942C117.788 71.2942 120.001 69.0819 120.001 66.353Z" fill="#EDEFF1"/>
<path d="M22.5898 28.2353C22.5898 26.6759 23.854 25.4118 25.4134 25.4118H59.2957C60.8551 25.4118 62.1192 26.6759 62.1192 28.2353V62.1176C62.1192 63.677 60.8551 64.9412 59.2957 64.9412H25.4134C23.854 64.9412 22.5898 63.677 22.5898 62.1176V28.2353Z" fill="white"/>
<path d="M24.6027 64.0747C24.8514 64.1778 25.1249 64.2353 25.4134 64.2353V64.9412C25.0304 64.9412 24.6655 64.8643 24.3325 64.7261L24.6027 64.0747ZM26.8251 64.2353V64.9412H25.4134V64.2353H26.8251ZM32.4722 64.2353V64.9412H29.6487V64.2353H32.4722ZM38.1193 64.2353V64.9412H35.2957V64.2353H38.1193ZM43.7663 64.2353V64.9412H40.9428V64.2353H43.7663ZM49.4134 64.2353V64.9412H46.5898V64.2353H49.4134ZM55.0604 64.2353V64.9412H52.2369V64.2353H55.0604ZM59.2957 64.2353V64.9412H57.884V64.2353H59.2957ZM60.3759 64.7261C60.0855 64.8465 59.771 64.921 59.4412 64.9377L59.2957 64.9412V64.2353C59.5842 64.2353 59.8577 64.1778 60.1064 64.0747L60.3759 64.7261ZM22.5898 62.1176V60.7059H23.2957V62.1176C23.2957 62.4061 23.3532 62.6796 23.4563 62.9283L22.8042 63.1978C22.6839 62.9075 22.61 62.5928 22.5933 62.2631L22.5898 62.1176ZM62.1158 62.2631C62.0991 62.5929 62.0246 62.9074 61.9042 63.1978L61.2528 62.9283C61.3559 62.6796 61.4134 62.4061 61.4134 62.1176V60.7059H62.1192V62.1176L62.1158 62.2631ZM23.2957 55.0588V57.8824H22.5898V55.0588H23.2957ZM62.1192 55.0588V57.8824H61.4134V55.0588H62.1192ZM23.2957 49.4118V52.2353H22.5898V49.4118H23.2957ZM62.1192 49.4118V52.2353H61.4134V49.4118H62.1192ZM23.2957 43.7647V46.5882H22.5898V43.7647H23.2957ZM62.1192 43.7647V46.5882H61.4134V43.7647H62.1192ZM23.2957 38.1177V40.9412H22.5898V38.1177H23.2957ZM62.1192 38.1177V40.9412H61.4134V38.1177H62.1192ZM23.2957 32.4706V35.2941H22.5898V32.4706H23.2957ZM62.1192 32.4706V35.2941H61.4134V32.4706H62.1192ZM22.5898 28.2353C22.5898 27.8524 22.6661 27.4874 22.8042 27.1544L23.4563 27.4246C23.3532 27.6733 23.2957 27.9469 23.2957 28.2353V29.6471H22.5898V28.2353ZM62.1192 29.6471H61.4134V28.2353C61.4134 27.9469 61.3559 27.6733 61.2528 27.4246L61.9042 27.1544C62.0423 27.4874 62.1192 27.8523 62.1192 28.2353V29.6471ZM26.8251 25.4118V26.1177H25.4134C25.1249 26.1177 24.8514 26.1751 24.6027 26.2783L24.3325 25.6262C24.6654 25.4881 25.0305 25.4118 25.4134 25.4118H26.8251ZM59.4412 25.4152C59.7709 25.432 60.0855 25.5058 60.3759 25.6262L60.1064 26.2783C59.8577 26.1751 59.5842 26.1177 59.2957 26.1177H57.884V25.4118H59.2957L59.4412 25.4152ZM32.4722 25.4118V26.1177H29.6487V25.4118H32.4722ZM38.1193 25.4118V26.1177H35.2957V25.4118H38.1193ZM43.7663 25.4118V26.1177H40.9428V25.4118H43.7663ZM49.4134 25.4118V26.1177H46.5898V25.4118H49.4134ZM55.0604 25.4118V26.1177H52.2369V25.4118H55.0604Z" fill="#C2C2C2"/>
<path d="M109.764 27.5294C110.738 27.5294 111.528 28.3195 111.528 29.2941C111.528 30.2687 110.738 31.0588 109.764 31.0588H73.0577C72.0831 31.0588 71.293 30.2687 71.293 29.2941C71.293 28.3195 72.0831 27.5294 73.0577 27.5294H109.764Z" fill="#DDDDDD"/>
<path d="M109.764 38.8235C110.738 38.8235 111.528 39.6136 111.528 40.5882C111.528 41.5628 110.738 42.3529 109.764 42.3529H73.0577C72.0831 42.3529 71.293 41.5628 71.293 40.5882C71.293 39.6136 72.0831 38.8235 73.0577 38.8235H109.764Z" fill="#DDDDDD"/>
<path d="M92.1165 48.7059C93.0911 48.7059 93.8812 49.496 93.8812 50.4706C93.8812 51.4452 93.0911 52.2353 92.1165 52.2353H73.0577C72.0831 52.2353 71.293 51.4452 71.293 50.4706C71.293 49.496 72.0831 48.7059 73.0577 48.7059H92.1165Z" fill="#DDDDDD"/>
<path d="M109.766 48.7059C110.74 48.7059 111.531 49.496 111.531 50.4706C111.531 51.4452 110.74 52.2353 109.766 52.2353H98.4717C97.4971 52.2353 96.707 51.4452 96.707 50.4706C96.707 49.496 97.4971 48.7059 98.4717 48.7059H109.766Z" fill="#DDDDDD"/>
<path d="M37.5838 52.5277C37.0325 53.079 36.1386 53.079 35.5873 52.5277C35.0359 51.9763 35.0359 51.0824 35.5873 50.5311L47.7083 38.4101C48.2596 37.8587 49.1535 37.8587 49.7049 38.4101C50.2562 38.9614 50.2562 39.8553 49.7049 40.4066L37.5838 52.5277Z" fill="#DDDDDD"/>
<path d="M47.8303 52.5277C48.3816 53.079 49.2755 53.079 49.8268 52.5277C50.3781 51.9763 50.3781 51.0824 49.8268 50.5311L37.7057 38.4101C37.1544 37.8587 36.2605 37.8587 35.7092 38.4101C35.1579 38.9614 35.1579 39.8553 35.7092 40.4066L47.8303 52.5277Z" fill="#DDDDDD"/>
<path d="M109.764 59.2941C110.738 59.2941 111.528 60.0842 111.528 61.0588C111.528 62.0335 110.738 62.8235 109.764 62.8235H73.0577C72.0831 62.8235 71.293 62.0335 71.293 61.0588C71.293 60.0842 72.0831 59.2941 73.0577 59.2941H109.764Z" fill="#DDDDDD"/>
</svg>
