<svg viewBox="0 0 32 32" fill="none" xmlns="http://www.w3.org/2000/svg">
<path d="M8.00008 28.6665C7.6223 28.6665 7.30564 28.5387 7.05008 28.2832C6.79453 28.0276 6.66675 27.7109 6.66675 27.3332C6.66675 26.9554 6.79453 26.6387 7.05008 26.3832C7.30564 26.1276 7.6223 25.9998 8.00008 25.9998H24.0001C24.3779 25.9998 24.6945 26.1276 24.9501 26.3832C25.2056 26.6387 25.3334 26.9554 25.3334 27.3332C25.3334 27.7109 25.2056 28.0276 24.9501 28.2832C24.6945 28.5387 24.3779 28.6665 24.0001 28.6665H8.00008ZM8.93341 23.9998C8.28897 23.9998 7.71675 23.7887 7.21675 23.3665C6.71675 22.9443 6.41119 22.4109 6.30008 21.7665L4.96675 13.2998C4.9223 13.2998 4.8723 13.3054 4.81675 13.3165C4.76119 13.3276 4.71119 13.3332 4.66675 13.3332C4.11119 13.3332 3.63897 13.1387 3.25008 12.7498C2.86119 12.3609 2.66675 11.8887 2.66675 11.3332C2.66675 10.7776 2.86119 10.3054 3.25008 9.9165C3.63897 9.52762 4.11119 9.33317 4.66675 9.33317C5.2223 9.33317 5.69453 9.52762 6.08341 9.9165C6.4723 10.3054 6.66675 10.7776 6.66675 11.3332C6.66675 11.4887 6.65008 11.6332 6.61675 11.7665C6.58341 11.8998 6.54453 12.0221 6.50008 12.1332L10.6667 13.9998L14.8334 8.29984C14.589 8.12206 14.389 7.88873 14.2334 7.59984C14.0779 7.31095 14.0001 6.99984 14.0001 6.6665C14.0001 6.11095 14.1945 5.63873 14.5834 5.24984C14.9723 4.86095 15.4445 4.6665 16.0001 4.6665C16.5556 4.6665 17.0279 4.86095 17.4167 5.24984C17.8056 5.63873 18.0001 6.11095 18.0001 6.6665C18.0001 6.99984 17.9223 7.31095 17.7667 7.59984C17.6112 7.88873 17.4112 8.12206 17.1667 8.29984L21.3334 13.9998L25.5001 12.1332C25.4556 12.0221 25.4167 11.8998 25.3834 11.7665C25.3501 11.6332 25.3334 11.4887 25.3334 11.3332C25.3334 10.7776 25.5279 10.3054 25.9167 9.9165C26.3056 9.52762 26.7779 9.33317 27.3334 9.33317C27.889 9.33317 28.3612 9.52762 28.7501 9.9165C29.139 10.3054 29.3334 10.7776 29.3334 11.3332C29.3334 11.8887 29.139 12.3609 28.7501 12.7498C28.3612 13.1387 27.889 13.3332 27.3334 13.3332C27.289 13.3332 27.239 13.3276 27.1834 13.3165C27.1279 13.3054 27.0779 13.2998 27.0334 13.2998L25.7001 21.7665C25.589 22.4109 25.2834 22.9443 24.7834 23.3665C24.2834 23.7887 23.7112 23.9998 23.0667 23.9998H8.93341ZM8.93341 21.3332H23.0667L23.9334 15.7665L22.4001 16.4332C21.8223 16.6776 21.2334 16.7221 20.6334 16.5665C20.0334 16.4109 19.5445 16.0776 19.1667 15.5665L16.0001 11.1998L12.8334 15.5665C12.4556 16.0776 11.9667 16.4109 11.3667 16.5665C10.7667 16.7221 10.1779 16.6776 9.60008 16.4332L8.06675 15.7665L8.93341 21.3332Z" fill="url(#paint0_linear_13976_63107)"/>
<defs>
<linearGradient id="paint0_linear_13976_63107" x1="2.66675" y1="16.6665" x2="29.3334" y2="16.6665" gradientUnits="userSpaceOnUse">
<stop stop-color="#17DA71"/>
<stop offset="1" stop-color="#08DDF0"/>
</linearGradient>
</defs>
</svg>
