<svg viewBox="0 0 96 40" fill="none" xmlns="http://www.w3.org/2000/svg">
<path d="M84.9502 15.5527L84.9512 15.5518L85.4463 15.7617L86.167 16.0654V16.0674L96 20.2451L94.417 23.9062L86.167 20.4004V40H9.83105V20.4033L1.58301 23.9072L0 20.2471L11.0557 15.5498L47.999 0L84.9502 15.5527ZM13.8486 18.7002V36.0166H82.1494V18.7002L47.999 4.32617L13.8486 18.7002ZM24.4873 19.9639L23.9209 21.6621L24.0508 21.7051C24.8422 20.6947 26.0946 20.3469 27.4355 20.7861C28.8139 21.2378 29.555 22.2388 29.5645 23.5117L29.6758 23.5488C30.4922 22.5874 31.8508 22.2327 33.3223 22.7148C35.1661 23.3192 36.076 24.929 35.3311 27.1631L33.083 33.9023L30.7178 33.127L32.8418 26.7568C33.2605 25.5013 32.6815 24.6973 31.7129 24.3799C30.5396 23.9955 29.6042 24.5693 29.2285 25.6953L27.1416 31.9551L24.832 31.1982L26.9863 24.7363C27.3311 23.7023 26.8515 22.7866 25.8457 22.457C24.8213 22.1214 23.7058 22.6781 23.2871 23.9336L21.2559 30.0264L18.8711 29.2451L22.2148 19.2188L24.4873 19.9639ZM57.9072 32.9453L55.5098 33.2158L55.2969 31.3613L55.1797 31.374C54.8256 32.5882 53.81 33.5443 52.2314 33.7227C50.1459 33.9581 48.5385 32.6913 48.2305 30.1816L47.4629 23.4961L49.958 23.2148L50.6816 29.5137C50.8348 30.8467 51.7311 31.6069 52.9395 31.4707C54.031 31.3475 55.1099 30.423 54.9258 28.8193L54.2266 22.7324L56.7021 22.4531L57.9072 32.9453ZM70.5986 16.7627C72.4793 16.2823 74.1225 17.1482 74.7148 19.4268L76.502 26.2998L74.0889 26.916L72.4004 20.4199C72.0675 19.1394 71.1412 18.773 70.1533 19.0254C68.9568 19.3312 68.4838 20.3153 68.7822 21.4639L70.4414 27.8486L68.0859 28.4502L66.3721 21.8584C66.0978 20.8043 65.1954 20.2919 64.1699 20.5537C63.1252 20.8206 62.4905 21.8865 62.8232 23.167L64.4385 29.3818L62.0068 30.0029L59.3486 19.7773L61.666 19.1855L62.1172 20.918L62.25 20.8838C62.3644 19.6095 63.2279 18.6453 64.5957 18.2959C66.0014 17.9369 67.1706 18.3817 67.873 19.4473L67.9863 19.418C68.1486 18.1717 69.0979 17.1461 70.5986 16.7627ZM42.0518 13.1152C45.1709 13.1153 47.1523 15.2935 47.1523 18.5801C47.1522 21.847 45.1708 24.0254 42.0518 24.0254C38.9523 24.0254 36.9513 21.847 36.9512 18.5801C36.9512 15.2935 38.9522 13.1152 42.0518 13.1152ZM42.0713 15.0791C40.3254 15.0791 39.4814 16.6353 39.4814 18.5605C39.4815 20.5052 40.3254 22.041 42.0713 22.041C43.778 22.041 44.622 20.5052 44.6221 18.5605C44.6221 16.6353 43.778 15.0791 42.0713 15.0791Z" fill="#00BB86"/>
</svg>
