<svg viewBox="0 0 52 40" fill="none" xmlns="http://www.w3.org/2000/svg">
<path fill-rule="evenodd" clip-rule="evenodd" d="M27.416 1.19727L52 21.7539L49.4561 24.7695L45.7832 21.6982V40H6.2168V21.6982L2.54395 24.7695L0 21.7539L24.583 1.19727L26 0L27.416 1.19727ZM10.1738 18.5449V36.0615H41.8262V18.5449L26 5.16699L10.1738 18.5449ZM30.6465 20.2939C32.7365 20.294 34.2147 21.6447 34.2148 24.1992V31.9062H31.5332V24.6221C31.5332 23.1863 30.6672 22.5527 29.5693 22.5527C28.2394 22.5528 27.4796 23.4604 27.4795 24.748V31.9062H24.8613V24.5166C24.8613 23.3343 24.059 22.5528 22.9189 22.5527C21.7577 22.5527 20.8076 23.5028 20.8076 24.9385V31.9062H18.1045V20.4414H20.6807V22.3838H20.8281C21.2926 21.0747 22.4544 20.2939 23.9746 20.2939C25.5369 20.294 26.6348 21.0748 27.0781 22.3838H27.2051C27.7118 21.117 28.9785 20.2939 30.6465 20.2939Z" fill="#00BB86"/>
</svg>
